<?xml version="1.0" encoding="UTF-8" standalone="no"?>
<!DOCTYPE svg PUBLIC "-//W3C//DTD SVG 1.1//EN" "http://www.w3.org/Graphics/SVG/1.1/DTD/svg11.dtd">
<svg width="100%" height="100%" viewBox="0 0 1200 403" version="1.1" xmlns="http://www.w3.org/2000/svg" xmlns:xlink="http://www.w3.org/1999/xlink" xml:space="preserve" style="fill-rule:evenodd;clip-rule:evenodd;stroke-linejoin:round;stroke-miterlimit:1.41421;">
    <g transform="matrix(1,0,0,1,-1280.97,-2.82235e-18)">
        <g id="logo" transform="matrix(1,0,0,0.335827,1280.97,2.82235e-18)">
            <rect x="0" y="0" width="1200" height="1200" style="fill:none;"/>
            <g transform="matrix(0.821668,0,0,2.4467,-11.2707,-849.676)">
                <path d="M224.248,670.421C212.504,682.17 197.237,686.478 181.97,686.478C152.219,686.478 127.165,666.896 127.165,630.083C127.165,596.403 150.653,572.905 182.753,572.905C196.062,572.905 210.155,577.996 221.508,588.179L251.65,556.481C230.511,535.756 209.372,527.935 181.97,527.935C125.992,527.935 79.455,561.564 79.455,630.083C79.455,698.6 125.992,732.23 181.97,732.23C210.547,732.23 234.034,723.627 256.348,701.728L224.248,670.421Z" style="fill:rgb(33,33,33);fill-rule:nonzero;"/>
                <path d="M277.536,451.991L277.536,726.358L325.245,726.358L325.245,627.709C325.245,598.741 344.829,574.862 373.029,574.862C398.488,574.862 416.896,589.737 416.896,624.969L416.896,726.358L464.606,726.358L464.606,624.578C464.606,567.823 440.36,530.675 385.563,530.675C363.629,530.675 342.479,537.323 325.245,559.612L325.245,451.991L277.536,451.991Z" style="fill:rgb(33,33,33);fill-rule:nonzero;"/>
                <path d="M656.471,559.999C645.506,540.84 620.833,528.718 594.986,528.718C538.596,528.327 494.406,563.127 494.406,629.691C494.406,697.428 536.641,732.621 593.811,732.23C615.35,731.839 645.506,720.89 656.471,698.211L658.819,726.358L703.79,726.358L703.79,533.416L658.037,533.416L656.471,559.999ZM599.294,571.339C674.461,571.339 674.461,688.435 599.294,688.435C567.571,688.435 542.116,666.504 542.116,629.691C542.116,592.879 567.571,571.339 599.294,571.339Z" style="fill:rgb(33,33,33);fill-rule:nonzero;"/>
                <path d="M834.954,529.501C773.48,529.501 735.156,574.863 735.156,630.083C735.156,685.694 772.698,730.664 835.346,730.664C897.994,730.664 935.927,685.694 935.927,630.083C935.927,574.863 896.429,529.501 834.954,529.501ZM835.346,572.905C867.461,572.905 887.826,601.102 887.826,630.083C887.826,659.455 870.203,686.869 835.346,686.869C800.489,686.869 782.865,659.455 782.865,630.083C782.865,601.102 800.881,572.905 835.346,572.905Z" style="fill:rgb(33,33,33);fill-rule:nonzero;"/>
                <path d="M1121.49,553.349C1099.2,533.8 1076.51,527.935 1046.34,527.935C1011.09,527.935 964.944,543.574 964.944,588.197C964.944,632.035 1008.35,645.328 1044.78,648.065C1072.2,649.633 1083.17,655.12 1083.17,668.444C1083.17,682.553 1066.32,691.958 1048.3,691.567C1026.76,691.175 995.447,679.81 981.76,664.525L958.289,698.605C986.452,727.93 1016.96,733.013 1047.52,733.013C1102.72,733.013 1130.48,703.688 1130.48,669.62C1130.48,618.351 1084.34,610.14 1047.91,607.794C1023.23,606.226 1011.87,599.171 1011.87,586.629C1011.87,574.479 1024.41,567.424 1047.13,567.424C1065.54,567.424 1081.21,571.735 1094.9,584.669L1121.49,553.349Z" style="fill:rgb(33,33,33);fill-rule:nonzero;"/>
                <path d="M1313.7,553.349C1291.41,533.8 1268.71,527.935 1238.55,527.935C1203.3,527.935 1157.15,543.574 1157.15,588.197C1157.15,632.035 1200.56,645.328 1236.98,648.065C1264.41,649.633 1275.37,655.12 1275.37,668.444C1275.37,682.553 1258.53,691.958 1240.51,691.567C1218.96,691.175 1187.65,679.81 1173.97,664.525L1150.5,698.605C1178.66,727.93 1209.17,733.013 1239.73,733.013C1294.93,733.013 1322.69,703.688 1322.69,669.62C1322.69,618.351 1276.55,610.14 1240.12,607.794C1215.44,606.226 1204.08,599.171 1204.08,586.629C1204.08,574.479 1216.61,567.424 1239.34,567.424C1257.75,567.424 1273.42,571.735 1287.11,584.669L1313.7,553.349Z" style="fill:rgb(33,33,33);fill-rule:nonzero;"/>
                <path d="M1352.1,701.72C1352.1,738.909 1408.42,738.909 1408.42,701.72C1408.42,664.531 1352.1,664.531 1352.1,701.72Z" style="fill:rgb(33,33,33);fill-rule:nonzero;"/>
            </g>
        </g>
    </g>
</svg>
